<svg width="26" height="26" viewBox="0 0 26 26" fill="none" xmlns="http://www.w3.org/2000/svg">
<path fill-rule="evenodd" clip-rule="evenodd" d="M4.12868 6.29518C3.25 7.17386 3.25 8.58808 3.25 11.4165V14.5832C3.25 17.4116 3.25 18.8258 4.12868 19.7045C5.00736 20.5832 6.42157 20.5832 9.25 20.5832H16.75C19.5784 20.5832 20.9926 20.5832 21.8713 19.7045C22.75 18.8258 22.75 17.4116 22.75 14.5832V11.4165C22.75 8.58808 22.75 7.17386 21.8713 6.29518C20.9926 5.4165 19.5784 5.4165 16.75 5.4165H9.25C6.42157 5.4165 5.00736 5.4165 4.12868 6.29518ZM7.0547 8.91795C6.59517 8.6116 5.9743 8.73577 5.66795 9.1953C5.3616 9.65483 5.48577 10.2757 5.9453 10.5821L11.8906 14.5456C12.5624 14.9935 13.4376 14.9935 14.1094 14.5456L20.0547 10.5821C20.5142 10.2757 20.6384 9.65483 20.3321 9.1953C20.0257 8.73577 19.4048 8.6116 18.9453 8.91795L13 12.8815L7.0547 8.91795Z" fill="#333333"/>
</svg>
